<?xml version="1.0" encoding="utf-8"?>
<!-- Generator: Adobe Illustrator 24.0.0, SVG Export Plug-In . SVG Version: 6.00 Build 0)  -->
<svg version="1.1" id="Layer_1" xmlns="http://www.w3.org/2000/svg" xmlns:xlink="http://www.w3.org/1999/xlink" x="0px" y="0px"
	 viewBox="0 0 595.3 841.9" style="enable-background:new 0 0 595.3 841.9;" xml:space="preserve">
<style type="text/css">
	.st0{fill:#FFFFFF;}
	.st1{fill:#13110C;}
</style>
<g>
	<path id="path4-9" class="st0" d="M294.5,237h249.1c0,82.9,0,165.8,0,248.7c-83,0-166.1,0-249.1,0V237L294.5,237z"/>
	<path id="path4" class="st1" d="M46,237h248.8c0,82.9,0,165.8,0,248.7c-82.9,0-165.8,0-248.8,0V237z"/>
	<path id="path8" class="st0" d="M165.8,250.9c11.1-1.2,22.4-0.6,33.4,1.6c19.9,4,38.7,13.6,53.6,27.5c8.3,7.7,15.5,16.6,21,26.5
		c-20.6,11.8-41.2,23.5-61.8,35.3c-4.1-7.1-10.2-12.9-17.6-16.4c-6.8-3.2-14.6-4.6-22-3.5c-9,1-17.5,5.4-23.8,11.9
		c-6.3,6.5-10.3,15.2-11,24.2c-1.4,14,5.5,28.5,17.2,36.4c10.2,7.2,23.9,9,35.7,4.8c9.1-3.1,16.8-9.7,21.6-18
		c20.5,11.9,41.2,23.6,61.8,35.4c-7.3,12.9-17.3,24.3-29.1,33.3c-12.3,9.4-26.5,16.2-41.5,19.8c-17.2,4.1-35.5,4.1-52.7-0.2
		c-14.6-3.6-28.5-10.3-40.5-19.4c-13-9.8-23.7-22.6-31.2-37c-12.3-23.4-15.8-51.2-9.7-76.9c4.7-20.4,15.4-39.4,30.5-54.1
		C117.3,264.5,141.1,253.3,165.8,250.9z"/>
	<path id="path10" class="st1" d="M312.6,254.8c23.7,0,47.3,0,71,0c23.8,29.6,47.4,59.3,71.2,88.9c0.1-29.6,0-59.3,0-88.9
		c23.7,0,47.3,0,71,0c0,71,0,142.1,0,213.1c-0.7,0-1.4,0-2.1,0c-6.1-0.1-12.2,0.1-18.3,0c-10.8,0.1-21.6,0-32.4,0
		c-6.1,0-12.2,0-18.3,0c-23.6-29.6-47.3-59.1-70.9-88.7c-0.1,29.6,0,59.2,0,88.7c-3.7,0-7.3,0-11,0c-0.5,0-1,0-1.6,0
		c-19.1,0.1-38.2,0-57.4,0c-0.3,0-0.8,0-1.1,0C312.6,396.9,312.6,325.9,312.6,254.8z"/>
	<path id="path12" class="st1" d="M60.9,505.9c3.9-2.7,9-3.6,13.6-2.2c3.9,1.1,7.2,3.8,9.3,7.3c-2.7,1.6-5.4,3.2-8.2,4.7
		c-1.4-2-3.8-3.4-6.3-3c-2.5,0.2-4.7,2.1-5.3,4.6c-1.2,3.7,1.9,8,5.8,8c2.4,0.2,4.6-1.2,5.9-3.1c2.7,1.6,5.5,3.2,8.2,4.7
		c-2.7,4.5-7.5,7.5-12.7,7.9h-2c-5.7-0.4-11.1-4-13.4-9.3c-1.4-2.8-1.6-6-1.2-9.1C55.1,512.2,57.5,508.4,60.9,505.9z"/>
	<path id="path14" class="st1" d="M200.5,503.2c-4.1,0-8,1.8-10.8,4.8c-2.8,2.8-4.4,6.8-4.5,10.8c0,3.7,1.2,7.3,3.6,10.1
		c2.6,3.3,6.5,5.3,10.6,5.8h3.3c4.1-0.6,8.1-2.6,10.7-5.9c2.7-3.2,3.9-7.5,3.4-11.7c-0.6-7.7-7.7-14.3-15.5-14
		C201,503.2,200.8,503.2,200.5,503.2z M200.9,513.2c2.6-0.1,5.2,1.8,5.8,4.4c1.1,3.7-2.5,7.7-6.3,7.1c-2.6-0.3-4.8-2.5-5-5.1
		c-0.3-2.6,1.4-5.2,3.8-6C199.7,513.3,200.3,513.2,200.9,513.2z"/>
	<path id="path16" class="st1" d="M235.2,503.2c-0.9,0-1.9,0.1-2.8,0.2c-4,0.7-7.6,3.1-10,6.4c-2.5,3.6-3.5,8.2-2.5,12.5
		c0.8,4,3.3,7.6,6.8,9.9c2.1,1.5,4.6,2.2,7.1,2.6h3.2c4.3-0.6,8.5-2.8,11.1-6.4c2.8-3.7,3.7-8.7,2.7-13.2c-1-4.2-3.8-7.9-7.5-10
		C240.8,503.7,238,503.2,235.2,503.2z M235.4,513.2c3,0,5.8,2.6,5.7,5.6c0.4,3.6-3.5,6.8-7,5.8c-3-0.6-5.2-4-4.3-7
		c0.5-2.1,2.3-3.8,4.3-4.2C234.5,513.2,235,513.2,235.4,513.2z"/>
	<path id="path18" class="st1" d="M455,503.1c-6,0-11.9,3.6-14.3,9.1c-2.3,4.8-1.9,10.7,1,15.2c2.6,4.2,7.2,6.8,12,7.4h2.8
		c3.7-0.5,7.2-2,9.8-4.7c2.4-2.5,4-5.8,4.5-9.3c0.5-3.6-0.5-7.3-2.4-10.4c-2.5-3.9-6.8-6.7-11.5-7.2
		C456.3,503.1,455.6,503.1,455,503.1z M454.8,513.1c2.8-0.1,5.6,2,6,4.8c0.8,3.6-2.8,7.3-6.4,6.6c-2.8-0.4-5.1-3-4.9-5.9
		c-0.1-2.2,1.5-4.3,3.5-5.2C453.5,513.3,454.1,513.2,454.8,513.1z"/>
	<path id="path20" class="st1" d="M109.1,503.7c-5.1,0-10.1,0-15.2,0c-3.1,10.1-6.3,20.3-9.5,30.4c3.6,0,7.2,0,10.8,0
		c0.5-1.7,0.9-3.4,1.5-5.1c3.2,0,6.5-0.1,9.7,0c0.7,1.6,0.9,3.4,1.5,5.1c3.6,0,7.1,0,10.7,0C115.4,524,112.3,513.8,109.1,503.7z
		 M101.5,512.1c1,3.1,1.9,6.3,2.8,9.4c-1.8,0-3.6,0-5.4,0C99.7,518.4,100.6,515.3,101.5,512.1z"/>
	<path id="path22" class="st1" d="M121.6,503.8v30.4c3.4,0,6.7,0,10.1,0c0-3,0-5.9,0-8.9c1.1,0,2.2,0,3.3,0c1.5,3,3,5.9,4.5,8.9
		c3.7,0,7.5,0,11.2,0c-1.9-3.4-4-6.6-5.9-10c0.4-0.5,1-0.7,1.5-1.1c2.8-2,4.7-5.5,4.4-9c0-5.4-4.9-10.1-10.3-10.3
		C134.2,503.7,127.9,503.8,121.6,503.8z M134.9,512.6c1.1,0,2.1,0,3.2,0c1.4-0.1,2.7,1.3,2.5,2.7c0,1.3-1.2,2.5-2.5,2.4
		c-2.2,0-4.3,0-6.5,0c0-1.7,0-3.4,0-5.1C132.8,512.6,133.9,512.6,134.9,512.6z"/>
	<path id="path24" class="st1" d="M153.5,512.6c0.1-3,0-5.9,0-8.9c10.1,0,20.3,0,30.4,0c0,2.9,0,5.9,0,8.8c-3.2,0-6.4,0-9.6,0
		c0,7.2,0,14.3,0,21.5c-3.8,0-7.5,0-11.3,0c0-7.2,0-14.3,0-21.5C159.8,512.6,156.7,512.6,153.5,512.6z"/>
	<path id="path26" class="st1" d="M254.3,503.8c3.4,0,6.7,0,10.1,0c3.4,4.2,6.7,8.5,10.2,12.6c0.1-4.2,0-8.4,0-12.6
		c3.4,0,6.7,0,10.1,0c0,10.1,0,20.3,0,30.4c-3.3,0-6.7,0-10,0c-3.5-4.2-6.8-8.5-10.2-12.7c-0.2,4.2-0.1,8.4-0.1,12.7
		c-3.3,0-6.7,0-10,0C254.3,524,254.3,513.9,254.3,503.8z"/>
	<path id="path28" class="st1" d="M305.2,503.7c3.4,0,6.7,0,10.1,0c3.4,4.2,6.7,8.5,10.2,12.6c0.1-4.2,0-8.4,0-12.7
		c3.3,0,6.7,0,10,0c0,10.1,0,20.2,0,30.4c-3.3,0-6.7,0-10,0c-3.5-4.2-6.8-8.5-10.2-12.7c0,4.2,0,8.5,0,12.7c-3.3,0-6.7,0-10,0
		C305.2,524,305.2,513.9,305.2,503.7z"/>
	<path id="path30" class="st1" d="M339.9,503.7c8.8,0,17.7,0,26.5,0c0,2.1,0,4.3,0,6.4c0,0.8-0.1,1.6-0.1,2.4c-5.5,0-10.9,0-16.4,0
		c0,0.9,0.1,1.8,0.1,2.7c4.6,0,9.2,0,13.8,0c0,2.5,0,5,0,7.5c-4.6,0-9.3,0-13.9,0c0,1,0,2.1,0,3.2c5.5,0.1,11,0,16.5,0
		c0,1.2,0,2.5,0,3.7c0,1.5,0,2.9,0,4.4c-8.8,0-17.7,0-26.5,0C339.9,524,340,513.9,339.9,503.7z"/>
	<path id="path32" class="st1" d="M369.8,503.8c10.2,0,20.3,0,30.5,0c0,2.9,0,5.9,0,8.8c-3.2,0-6.4,0-9.5,0c0,7.2,0,14.4,0,21.5
		c-3.8,0-7.5,0-11.3,0c0-7.2,0-14.3,0-21.5c-3.2-0.1-6.4,0.1-9.6-0.1C369.8,509.6,369.8,506.7,369.8,503.8z"/>
	<path id="path34" class="st1" d="M402.8,503.8c3.4,0,6.8,0,10.2,0c0.8,4.4,1.6,8.9,2.6,13.3c1.7-4.1,3.4-8.2,5.1-12.2
		c1.7,4.1,3.3,8.2,5.1,12.2c0.9-4.4,1.6-8.9,2.6-13.3c3.4,0,6.7,0,10.1,0c-1.9,10.1-3.9,20.2-5.8,30.3c-2.8,0-5.6,0-8.4,0
		c-1.2-2.7-2.4-5.5-3.6-8.2c-1.3,2.7-2.4,5.5-3.7,8.2c-2.8,0-5.5,0-8.3,0C406.6,524,404.8,513.9,402.8,503.8z"/>
	<path id="path36" class="st1" d="M483,503.8c-3,0-6,0-9.1,0c0,10.1,0,20.2,0,30.4c3.4,0,6.8,0,10.1,0c0-3,0-6,0-9
		c1.1,0,2.2,0,3.2,0c1.4,3,3,5.9,4.4,8.9c3.8,0,7.5,0,11.3,0c-2-3.4-4.1-6.7-6-10.1c3.2-1.6,5.4-4.8,6-8.3c0-0.8,0-1.6,0-2.4
		c-0.4-2.2-1.2-4.3-2.7-5.9c-2.1-2.3-5.2-3.7-8.3-3.6C489,503.8,486,503.7,483,503.8z M484.1,512.6c2.2,0,4.3,0,6.5,0
		c1.6-0.1,3,1.9,2.3,3.4c-0.4,0.9-1.3,1.7-2.3,1.7c-2.2,0-4.3,0-6.5,0C484.1,516,484.1,514.3,484.1,512.6z"/>
	<path id="path38" class="st1" d="M506.3,534.1c0-10.1,0-20.2,0-30.4c3.4,0,6.8,0,10.2,0c0,3.3-0.1,6.5,0,9.8c2.6-3.2,5-6.6,7.6-9.9
		c4.3,0,8.6,0,12.9,0c-4,4.8-7.8,9.7-11.7,14.5c3.7,5.4,7.9,10.6,11.8,15.9c-4.3,0-8.6,0-13,0c-2.5-3.8-5-7.5-7.5-11.3
		c-0.1,3.8,0,7.5,0,11.3C513.1,534.1,509.7,534.1,506.3,534.1z"/>
	<path id="path52" class="st1" d="M541.7,526c2.2,0,4.5,0,6.7,0c0,0.4,0,0.9,0,1.3c-0.8,0-1.6,0-2.4,0c-0.3,2.3-0.1,4.6-0.2,6.9
		c-0.5,0-1.1,0-1.6,0c0-2.3,0-4.6,0-6.9c-0.8,0-1.6,0-2.5,0C541.8,526.8,541.7,526.4,541.7,526z"/>
	<path id="path54" class="st1" d="M549.5,526c0.8,0,1.6,0,2.5,0c0.6,2.2,1,4.4,1.7,6.6c0.5-2.2,0.9-4.4,1.5-6.6c0.8,0,1.6,0,2.5,0
		v8.2c-0.4,0-1.1,0-1.5,0c0-2.3,0.1-4.5-0.1-6.8c-0.8,2.2-1.1,4.5-1.7,6.8c-0.4,0-1.2,0-1.6,0c-0.6-2.2-1-4.5-1.6-6.8
		c-0.2,2.2-0.1,4.5-0.1,6.7c-0.5,0-1,0-1.5,0C549.5,531.4,549.5,528.7,549.5,526z"/>
</g>
</svg>
